# xmcd
#
# Track frame offsets:
#	182
#	13462
#	25917
#	39392
#	49902
#	65025
#	75770
#	91240
#	104425
#	117855
#	132862
#	148155
#	165387
#	176690
#	187137
#	202152
#	212737
#	224277
#	234412
#	248535
#	262690
#	277505
#	289047
#	299967
#	311652
#	327690
#
# Disc length: 4510 seconds
#
# Revision: 6
# Processed by: cddbd v1.5.1PL0 Copyright (c) Steve Scherf et al.
# Submitted via: audiograbber 1.83.01
#
DISCID=89119c1a
DTITLE=Kenny Rogers - Ruby Don't Take Your Love To Town
DYEAR=1900
DGENRE=Country
TTITLE0=Ruby Don't Take Your Love To Town
TTITLE1=Reuben James
TTITLE2=Shine On Ruby Mountain
TTITLE3=Ticket To Nowhere
TTITLE4=Conditions (Just Dropped In)
TTITLE5=She Even Woke Me Up To Say Goodbye
TTITLE6=My Washington Woman
TTITLE7=Run Thru Your Mind
TTITLE8=Sleep Comes Easy
TTITLE9=After All (I Live My Life)
TTITLE10=For The Good Times
TTITLE11=Something's Burning
TTITLE12=Hurry Up Love
TTITLE13=Trying Just As Hard
TTITLE14=Heed The Call
TTITLE15=We All Got To Help Each Other
TTITLE16=Poem For My Little Lady
TTITLE17=Where Does Rosie Go
TTITLE18=Sunshine
TTITLE19=Loser
TTITLE20=Church Without A Name
TTITLE21=Me And Bobby McGee
TTITLE22=Always Leaving Always Gone
TTITLE23=Calico Silver
TTITLE24=The Way It Used To Be
TTITLE25=Goodtime Liberator
EXTD=\n\n
EXTT0=
EXTT1=
EXTT2=
EXTT3=
EXTT4=
EXTT5=
EXTT6=
EXTT7=
EXTT8=
EXTT9=
EXTT10=
EXTT11=
EXTT12=
EXTT13=
EXTT14=
EXTT15=
EXTT16=
EXTT17=
EXTT18=
EXTT19=
EXTT20=
EXTT21=
EXTT22=
EXTT23=
EXTT24=
EXTT25=
PLAYORDER=
